<?xml version="1.0" encoding="UTF-8" standalone="no"?>
<!DOCTYPE svg PUBLIC "-//W3C//DTD SVG 1.1//EN"
 "http://www.w3.org/Graphics/SVG/1.1/DTD/svg11.dtd">
<!-- Generated by graphviz version 2.43.0 (0)
 -->
<!-- Title: DCCP::Option Pages: 1 -->
<svg width="2170pt" height="735pt"
 viewBox="0.00 0.00 2169.72 735.40" xmlns="http://www.w3.org/2000/svg" xmlns:xlink="http://www.w3.org/1999/xlink">
<g id="graph0" class="graph" transform="scale(1 1) rotate(0) translate(7.2 728.2)">
<title>DCCP::Option</title>
<polygon fill="transparent" stroke="transparent" points="-7.2,7.2 -7.2,-728.2 2162.52,-728.2 2162.52,7.2 -7.2,7.2"/>
<!-- Initial -->
<g id="node1" class="node">
<title>Initial</title>
<ellipse fill="#ffffff" stroke="#6f6f6f" cx="626.82" cy="-703" rx="18" ry="18"/>
</g>
<!-- intermediate_1 -->
<g id="node14" class="node">
<title>intermediate_1</title>
<polygon fill="none" stroke="#6f6f6f" stroke-width="0" points="664.32,-646 589.32,-646 589.32,-623 664.32,-623 664.32,-646"/>
<text text-anchor="middle" x="626.82" y="-630.8" font-family="Fira Code" font-size="14.00" fill="#6f6f6f">(⊤, 8, ⋆)</text>
</g>
<!-- Initial&#45;&gt;intermediate_1 -->
<g id="edge3" class="edge">
<title>Initial&#45;&gt;intermediate_1</title>
<path fill="none" stroke="#6f6f6f" stroke-width="2.5" d="M626.82,-684.87C626.82,-672.71 626.82,-656.76 626.82,-646.32"/>
</g>
<!-- Option_Type -->
<g id="node2" class="node">
<title>Option_Type</title>
<path fill="#009641" stroke="#6f6f6f" d="M668.82,-584C668.82,-584 584.82,-584 584.82,-584 578.82,-584 572.82,-578 572.82,-572 572.82,-572 572.82,-560 572.82,-560 572.82,-554 578.82,-548 584.82,-548 584.82,-548 668.82,-548 668.82,-548 674.82,-548 680.82,-554 680.82,-560 680.82,-560 680.82,-572 680.82,-572 680.82,-578 674.82,-584 668.82,-584"/>
<text text-anchor="middle" x="626.82" y="-562.3" font-family="Arimo" font-size="14.00" fill="#ffffff">Option_Type</text>
</g>
<!-- intermediate_13 -->
<g id="node26" class="node">
<title>intermediate_13</title>
<polygon fill="none" stroke="#6f6f6f" stroke-width="0" points="677.82,-455.5 329.82,-455.5 329.82,-402.5 677.82,-402.5 677.82,-455.5"/>
<text text-anchor="middle" x="503.82" y="-440.3" font-family="Fira Code" font-size="14.00" fill="#6f6f6f">((Option_Type = DCCP::PADDING</text>
<text text-anchor="middle" x="503.82" y="-425.3" font-family="Fira Code" font-size="14.00" fill="#6f6f6f"> or Option_Type = DCCP::MANDATORY)</text>
<text text-anchor="middle" x="503.82" y="-410.3" font-family="Fira Code" font-size="14.00" fill="#6f6f6f">or Option_Type = DCCP::SLOW_RECEIVER, 0, ⋆)</text>
</g>
<!-- Option_Type&#45;&gt;intermediate_13 -->
<g id="edge27" class="edge">
<title>Option_Type&#45;&gt;intermediate_13</title>
<path fill="none" stroke="#6f6f6f" stroke-width="2.5" d="M583.22,-547.79C571.35,-541.6 559.18,-533.69 549.82,-524 531.13,-504.66 518.68,-476.27 511.49,-455.75"/>
</g>
<!-- intermediate_14 -->
<g id="node27" class="node">
<title>intermediate_14</title>
<polygon fill="none" stroke="#6f6f6f" stroke-width="0" points="923.32,-524 558.32,-524 558.32,-471 923.32,-471 923.32,-524"/>
<text text-anchor="middle" x="740.82" y="-508.8" font-family="Fira Code" font-size="14.00" fill="#6f6f6f">((Option_Type /= DCCP::PADDING</text>
<text text-anchor="middle" x="740.82" y="-493.8" font-family="Fira Code" font-size="14.00" fill="#6f6f6f"> and Option_Type /= DCCP::MANDATORY)</text>
<text text-anchor="middle" x="740.82" y="-478.8" font-family="Fira Code" font-size="14.00" fill="#6f6f6f">and Option_Type /= DCCP::SLOW_RECEIVER, 8, ⋆)</text>
</g>
<!-- Option_Type&#45;&gt;intermediate_14 -->
<g id="edge29" class="edge">
<title>Option_Type&#45;&gt;intermediate_14</title>
<path fill="none" stroke="#6f6f6f" stroke-width="2.5" d="M656.18,-547.87C668.58,-540.64 683.28,-532.06 696.93,-524.1"/>
</g>
<!-- Option_Length -->
<g id="node3" class="node">
<title>Option_Length</title>
<path fill="#009641" stroke="#6f6f6f" d="M1117.82,-447C1117.82,-447 1033.82,-447 1033.82,-447 1027.82,-447 1021.82,-441 1021.82,-435 1021.82,-435 1021.82,-423 1021.82,-423 1021.82,-417 1027.82,-411 1033.82,-411 1033.82,-411 1117.82,-411 1117.82,-411 1123.82,-411 1129.82,-417 1129.82,-423 1129.82,-423 1129.82,-435 1129.82,-435 1129.82,-441 1123.82,-447 1117.82,-447"/>
<text text-anchor="middle" x="1075.82" y="-425.3" font-family="Arimo" font-size="14.00" fill="#ffffff">Option_Length</text>
</g>
<!-- intermediate_6 -->
<g id="node19" class="node">
<title>intermediate_6</title>
<polygon fill="none" stroke="#6f6f6f" stroke-width="0" points="1918.32,-318.5 1609.32,-318.5 1609.32,-265.5 1918.32,-265.5 1918.32,-318.5"/>
<text text-anchor="middle" x="1763.82" y="-303.3" font-family="Fira Code" font-size="14.00" fill="#6f6f6f">(Option_Length &gt;= 4</text>
<text text-anchor="middle" x="1763.82" y="-288.3" font-family="Fira Code" font-size="14.00" fill="#6f6f6f">and Option_Type = DCCP::ELAPSED_TIME,</text>
<text text-anchor="middle" x="1763.82" y="-273.3" font-family="Fira Code" font-size="14.00" fill="#6f6f6f">Option_Length * 8 &#45; 16, ⋆)</text>
</g>
<!-- Option_Length&#45;&gt;intermediate_6 -->
<g id="edge13" class="edge">
<title>Option_Length&#45;&gt;intermediate_6</title>
<path fill="none" stroke="#6f6f6f" stroke-width="2.5" d="M1129.94,-427.53C1294.59,-425.82 1779.65,-418.76 1802.82,-394.5 1823.69,-372.64 1815.43,-353.96 1802.82,-326.5 1801.55,-323.74 1799.93,-321.13 1798.08,-318.66"/>
</g>
<!-- intermediate_7 -->
<g id="node20" class="node">
<title>intermediate_7</title>
<polygon fill="none" stroke="#6f6f6f" stroke-width="0" points="419.32,-372 32.32,-372 32.32,-349 419.32,-349 419.32,-372"/>
<text text-anchor="middle" x="225.82" y="-356.8" font-family="Fira Code" font-size="14.00" fill="#6f6f6f">(Option_Type = DCCP::CCID3_LOSS_EVT_RATE, 32, ⋆)</text>
</g>
<!-- Option_Length&#45;&gt;intermediate_7 -->
<g id="edge15" class="edge">
<title>Option_Length&#45;&gt;intermediate_7</title>
<path fill="none" stroke="#6f6f6f" stroke-width="2.5" d="M1021.73,-423.86C946.63,-418.25 806.47,-408.28 686.82,-402.5 572.23,-396.97 543.01,-405.5 428.82,-394.5 377.46,-389.55 319.4,-379.67 278.57,-372.01"/>
</g>
<!-- intermediate_8 -->
<g id="node21" class="node">
<title>intermediate_8</title>
<polygon fill="none" stroke="#6f6f6f" stroke-width="0" points="728.32,-387 437.32,-387 437.32,-334 728.32,-334 728.32,-387"/>
<text text-anchor="middle" x="582.82" y="-371.8" font-family="Fira Code" font-size="14.00" fill="#6f6f6f">(Option_Length &gt;= 3</text>
<text text-anchor="middle" x="582.82" y="-356.8" font-family="Fira Code" font-size="14.00" fill="#6f6f6f">and Option_Type = DCCP::NDP_COUNT,</text>
<text text-anchor="middle" x="582.82" y="-341.8" font-family="Fira Code" font-size="14.00" fill="#6f6f6f">Option_Length * 8 &#45; 16, ⋆)</text>
</g>
<!-- Option_Length&#45;&gt;intermediate_8 -->
<g id="edge17" class="edge">
<title>Option_Length&#45;&gt;intermediate_8</title>
<path fill="none" stroke="#6f6f6f" stroke-width="2.5" d="M1021.73,-424.5C954.79,-419.74 837.46,-410 737.82,-394.5 724.09,-392.36 709.74,-389.79 695.56,-387.03"/>
</g>
<!-- intermediate_9 -->
<g id="node22" class="node">
<title>intermediate_9</title>
<polygon fill="none" stroke="#6f6f6f" stroke-width="0" points="1058.82,-394.5 746.82,-394.5 746.82,-326.5 1058.82,-326.5 1058.82,-394.5"/>
<text text-anchor="middle" x="902.82" y="-379.3" font-family="Fira Code" font-size="14.00" fill="#6f6f6f">(((Option_Type = DCCP::CHANGE_L</text>
<text text-anchor="middle" x="902.82" y="-364.3" font-family="Fira Code" font-size="14.00" fill="#6f6f6f"> &#160;or Option_Type = DCCP::CHANGE_R)</text>
<text text-anchor="middle" x="902.82" y="-349.3" font-family="Fira Code" font-size="14.00" fill="#6f6f6f"> or Option_Type = DCCP::CONFIRM_L)</text>
<text text-anchor="middle" x="902.82" y="-334.3" font-family="Fira Code" font-size="14.00" fill="#6f6f6f">or Option_Type = DCCP::CONFIRM_R, 8, ⋆)</text>
</g>
<!-- Option_Length&#45;&gt;intermediate_9 -->
<g id="edge19" class="edge">
<title>Option_Length&#45;&gt;intermediate_9</title>
<path fill="none" stroke="#6f6f6f" stroke-width="2.5" d="M1031.27,-410.87C1018.25,-405.87 1003.56,-400.23 988.89,-394.59"/>
</g>
<!-- intermediate_10 -->
<g id="node23" class="node">
<title>intermediate_10</title>
<polygon fill="none" stroke="#6f6f6f" stroke-width="0" points="1422.32,-372 1077.32,-372 1077.32,-349 1422.32,-349 1422.32,-372"/>
<text text-anchor="middle" x="1249.82" y="-356.8" font-family="Fira Code" font-size="14.00" fill="#6f6f6f">(Option_Type = DCCP::CCID3_RCV_RATE, 32, ⋆)</text>
</g>
<!-- Option_Length&#45;&gt;intermediate_10 -->
<g id="edge21" class="edge">
<title>Option_Length&#45;&gt;intermediate_10</title>
<path fill="none" stroke="#6f6f6f" stroke-width="2.5" d="M1120.63,-410.87C1152.75,-398.6 1194.99,-382.45 1222.28,-372.03"/>
</g>
<!-- intermediate_11 -->
<g id="node24" class="node">
<title>intermediate_11</title>
<polygon fill="none" stroke="#6f6f6f" stroke-width="0" points="1793.32,-372 1440.32,-372 1440.32,-349 1793.32,-349 1793.32,-372"/>
<text text-anchor="middle" x="1616.82" y="-356.8" font-family="Fira Code" font-size="14.00" fill="#6f6f6f">(Option_Type = DCCP::TIMESTAMP_ECHO, 32, ⋆)</text>
</g>
<!-- Option_Length&#45;&gt;intermediate_11 -->
<g id="edge23" class="edge">
<title>Option_Length&#45;&gt;intermediate_11</title>
<path fill="none" stroke="#6f6f6f" stroke-width="2.5" d="M1129.96,-424.31C1199.87,-419.21 1325.25,-408.99 1431.82,-394.5 1476.75,-388.39 1527.43,-379.18 1564.37,-372.05"/>
</g>
<!-- intermediate_12 -->
<g id="node25" class="node">
<title>intermediate_12</title>
<polygon fill="none" stroke="#6f6f6f" stroke-width="0" points="2155.32,-372 1850.32,-372 1850.32,-349 2155.32,-349 2155.32,-372"/>
<text text-anchor="middle" x="2002.82" y="-356.8" font-family="Fira Code" font-size="14.00" fill="#6f6f6f">(Option_Type = DCCP::TIMESTAMP, 32, ⋆)</text>
</g>
<!-- Option_Length&#45;&gt;intermediate_12 -->
<g id="edge25" class="edge">
<title>Option_Length&#45;&gt;intermediate_12</title>
<path fill="none" stroke="#6f6f6f" stroke-width="2.5" d="M1129.95,-428.41C1254.84,-428.75 1572.58,-426.13 1835.82,-394.5 1878.07,-389.42 1925.63,-379.62 1959.16,-372.01"/>
</g>
<!-- Loss_Event_Rate -->
<g id="node4" class="node">
<title>Loss_Event_Rate</title>
<path fill="#009641" stroke="#6f6f6f" d="M348.32,-310C348.32,-310 249.32,-310 249.32,-310 243.32,-310 237.32,-304 237.32,-298 237.32,-298 237.32,-286 237.32,-286 237.32,-280 243.32,-274 249.32,-274 249.32,-274 348.32,-274 348.32,-274 354.32,-274 360.32,-280 360.32,-286 360.32,-286 360.32,-298 360.32,-298 360.32,-304 354.32,-310 348.32,-310"/>
<text text-anchor="middle" x="298.82" y="-288.3" font-family="Arimo" font-size="14.00" fill="#ffffff">Loss_Event_Rate</text>
</g>
<!-- intermediate_2 -->
<g id="node15" class="node">
<title>intermediate_2</title>
<polygon fill="none" stroke="#6f6f6f" stroke-width="0" points="424.32,-166.5 349.32,-166.5 349.32,-143.5 424.32,-143.5 424.32,-166.5"/>
<text text-anchor="middle" x="386.82" y="-151.3" font-family="Fira Code" font-size="14.00" fill="#6f6f6f">(⊤, 0, ⋆)</text>
</g>
<!-- Loss_Event_Rate&#45;&gt;intermediate_2 -->
<g id="edge5" class="edge">
<title>Loss_Event_Rate&#45;&gt;intermediate_2</title>
<path fill="none" stroke="#6f6f6f" stroke-width="2.5" d="M309.96,-273.9C328.37,-245.66 364.6,-190.08 379.82,-166.73"/>
</g>
<!-- NDP_Count_Opt -->
<g id="node5" class="node">
<title>NDP_Count_Opt</title>
<path fill="#009641" stroke="#6f6f6f" d="M640.32,-310C640.32,-310 545.32,-310 545.32,-310 539.32,-310 533.32,-304 533.32,-298 533.32,-298 533.32,-286 533.32,-286 533.32,-280 539.32,-274 545.32,-274 545.32,-274 640.32,-274 640.32,-274 646.32,-274 652.32,-280 652.32,-286 652.32,-286 652.32,-298 652.32,-298 652.32,-304 646.32,-310 640.32,-310"/>
<text text-anchor="middle" x="592.82" y="-288.3" font-family="Arimo" font-size="14.00" fill="#ffffff">NDP_Count_Opt</text>
</g>
<!-- intermediate_3 -->
<g id="node16" class="node">
<title>intermediate_3</title>
<polygon fill="none" stroke="#6f6f6f" stroke-width="0" points="774.32,-98 699.32,-98 699.32,-75 774.32,-75 774.32,-98"/>
<text text-anchor="middle" x="736.82" y="-82.8" font-family="Fira Code" font-size="14.00" fill="#6f6f6f">(⊤, 0, ⋆)</text>
</g>
<!-- NDP_Count_Opt&#45;&gt;intermediate_3 -->
<g id="edge7" class="edge">
<title>NDP_Count_Opt&#45;&gt;intermediate_3</title>
<path fill="none" stroke="#6f6f6f" stroke-width="2.5" d="M590.58,-273.8C587.2,-240 584.84,-164.42 623.82,-121 642.75,-99.91 674.27,-91.83 699.22,-88.86"/>
</g>
<!-- Option_Feature -->
<g id="node6" class="node">
<title>Option_Feature</title>
<path fill="#009641" stroke="#6f6f6f" d="M946.32,-310C946.32,-310 859.32,-310 859.32,-310 853.32,-310 847.32,-304 847.32,-298 847.32,-298 847.32,-286 847.32,-286 847.32,-280 853.32,-274 859.32,-274 859.32,-274 946.32,-274 946.32,-274 952.32,-274 958.32,-280 958.32,-286 958.32,-286 958.32,-298 958.32,-298 958.32,-304 952.32,-310 946.32,-310"/>
<text text-anchor="middle" x="902.82" y="-288.3" font-family="Arimo" font-size="14.00" fill="#ffffff">Option_Feature</text>
</g>
<!-- intermediate_4 -->
<g id="node17" class="node">
<title>intermediate_4</title>
<polygon fill="none" stroke="#6f6f6f" stroke-width="0" points="1003.32,-189 632.32,-189 632.32,-121 1003.32,-121 1003.32,-189"/>
<text text-anchor="middle" x="817.82" y="-173.8" font-family="Fira Code" font-size="14.00" fill="#6f6f6f">((Option_Type = DCCP::CONFIRM_L</text>
<text text-anchor="middle" x="817.82" y="-158.8" font-family="Fira Code" font-size="14.00" fill="#6f6f6f"> or Option_Type = DCCP::CONFIRM_R)</text>
<text text-anchor="middle" x="817.82" y="-143.8" font-family="Fira Code" font-size="14.00" fill="#6f6f6f">and (Option_Feature &lt; DCCP::FEATURE_RESERVED</text>
<text text-anchor="middle" x="817.82" y="-128.8" font-family="Fira Code" font-size="14.00" fill="#6f6f6f"> &#160;&#160;&#160;&#160;or Option_Feature &gt; 255), 0, ⋆)</text>
</g>
<!-- Option_Feature&#45;&gt;intermediate_4 -->
<g id="edge9" class="edge">
<title>Option_Feature&#45;&gt;intermediate_4</title>
<path fill="none" stroke="#6f6f6f" stroke-width="2.5" d="M884.07,-273.67C877.18,-266.73 869.65,-258.39 863.82,-250 850.64,-231.06 839.22,-207.78 831.05,-189.12"/>
</g>
<!-- intermediate_5 -->
<g id="node18" class="node">
<title>intermediate_5</title>
<polygon fill="none" stroke="#6f6f6f" stroke-width="0" points="947.32,-235 872.32,-235 872.32,-212 947.32,-212 947.32,-235"/>
<text text-anchor="middle" x="909.82" y="-219.8" font-family="Fira Code" font-size="14.00" fill="#6f6f6f">(⊤, 8, ⋆)</text>
</g>
<!-- Option_Feature&#45;&gt;intermediate_5 -->
<g id="edge11" class="edge">
<title>Option_Feature&#45;&gt;intermediate_5</title>
<path fill="none" stroke="#6f6f6f" stroke-width="2.5" d="M904.62,-273.87C905.9,-261.71 907.58,-245.76 908.68,-235.32"/>
</g>
<!-- Receive_Rate -->
<g id="node7" class="node">
<title>Receive_Rate</title>
<path fill="#009641" stroke="#6f6f6f" d="M1260.82,-310C1260.82,-310 1176.82,-310 1176.82,-310 1170.82,-310 1164.82,-304 1164.82,-298 1164.82,-298 1164.82,-286 1164.82,-286 1164.82,-280 1170.82,-274 1176.82,-274 1176.82,-274 1260.82,-274 1260.82,-274 1266.82,-274 1272.82,-280 1272.82,-286 1272.82,-286 1272.82,-298 1272.82,-298 1272.82,-304 1266.82,-310 1260.82,-310"/>
<text text-anchor="middle" x="1218.82" y="-288.3" font-family="Arimo" font-size="14.00" fill="#ffffff">Receive_Rate</text>
</g>
<!-- intermediate_16 -->
<g id="node29" class="node">
<title>intermediate_16</title>
<polygon fill="none" stroke="#6f6f6f" stroke-width="0" points="1215.32,-98 1140.32,-98 1140.32,-75 1215.32,-75 1215.32,-98"/>
<text text-anchor="middle" x="1177.82" y="-82.8" font-family="Fira Code" font-size="14.00" fill="#6f6f6f">(⊤, 0, ⋆)</text>
</g>
<!-- Receive_Rate&#45;&gt;intermediate_16 -->
<g id="edge33" class="edge">
<title>Receive_Rate&#45;&gt;intermediate_16</title>
<path fill="none" stroke="#6f6f6f" stroke-width="2.5" d="M1215.39,-274C1207.19,-233.31 1186.63,-131.22 1179.95,-98.07"/>
</g>
<!-- Timestamp_Echo_Opt -->
<g id="node8" class="node">
<title>Timestamp_Echo_Opt</title>
<path fill="#009641" stroke="#6f6f6f" d="M1579.32,-310C1579.32,-310 1450.32,-310 1450.32,-310 1444.32,-310 1438.32,-304 1438.32,-298 1438.32,-298 1438.32,-286 1438.32,-286 1438.32,-280 1444.32,-274 1450.32,-274 1450.32,-274 1579.32,-274 1579.32,-274 1585.32,-274 1591.32,-280 1591.32,-286 1591.32,-286 1591.32,-298 1591.32,-298 1591.32,-304 1585.32,-310 1579.32,-310"/>
<text text-anchor="middle" x="1514.82" y="-288.3" font-family="Arimo" font-size="14.00" fill="#ffffff">Timestamp_Echo_Opt</text>
</g>
<!-- intermediate_17 -->
<g id="node30" class="node">
<title>intermediate_17</title>
<polygon fill="none" stroke="#6f6f6f" stroke-width="0" points="1680.82,-250 1348.82,-250 1348.82,-197 1680.82,-197 1680.82,-250"/>
<text text-anchor="middle" x="1514.82" y="-234.8" font-family="Fira Code" font-size="14.00" fill="#6f6f6f">(Option_Length &gt;= 8</text>
<text text-anchor="middle" x="1514.82" y="-219.8" font-family="Fira Code" font-size="14.00" fill="#6f6f6f">and Option_Type = DCCP::TIMESTAMP_ECHO,</text>
<text text-anchor="middle" x="1514.82" y="-204.8" font-family="Fira Code" font-size="14.00" fill="#6f6f6f">Option_Length * 8 &#45; 48, ⋆)</text>
</g>
<!-- Timestamp_Echo_Opt&#45;&gt;intermediate_17 -->
<g id="edge35" class="edge">
<title>Timestamp_Echo_Opt&#45;&gt;intermediate_17</title>
<path fill="none" stroke="#6f6f6f" stroke-width="2.5" d="M1514.82,-273.87C1514.82,-266.64 1514.82,-258.06 1514.82,-250.1"/>
</g>
<!-- Timestamp_Option -->
<g id="node9" class="node">
<title>Timestamp_Option</title>
<path fill="#009641" stroke="#6f6f6f" d="M2057.32,-310C2057.32,-310 1948.32,-310 1948.32,-310 1942.32,-310 1936.32,-304 1936.32,-298 1936.32,-298 1936.32,-286 1936.32,-286 1936.32,-280 1942.32,-274 1948.32,-274 1948.32,-274 2057.32,-274 2057.32,-274 2063.32,-274 2069.32,-280 2069.32,-286 2069.32,-286 2069.32,-298 2069.32,-298 2069.32,-304 2063.32,-310 2057.32,-310"/>
<text text-anchor="middle" x="2002.82" y="-288.3" font-family="Arimo" font-size="14.00" fill="#ffffff">Timestamp_Option</text>
</g>
<!-- intermediate_18 -->
<g id="node31" class="node">
<title>intermediate_18</title>
<polygon fill="none" stroke="#6f6f6f" stroke-width="0" points="1939.32,-235 1864.32,-235 1864.32,-212 1939.32,-212 1939.32,-235"/>
<text text-anchor="middle" x="1901.82" y="-219.8" font-family="Fira Code" font-size="14.00" fill="#6f6f6f">(⊤, 0, ⋆)</text>
</g>
<!-- Timestamp_Option&#45;&gt;intermediate_18 -->
<g id="edge37" class="edge">
<title>Timestamp_Option&#45;&gt;intermediate_18</title>
<path fill="none" stroke="#6f6f6f" stroke-width="2.5" d="M1976.81,-273.87C1958.22,-261.64 1933.79,-245.55 1917.95,-235.12"/>
</g>
<!-- Option_Value -->
<g id="node10" class="node">
<title>Option_Value</title>
<path fill="#009641" stroke="#6f6f6f" d="M1117.82,-173C1117.82,-173 1033.82,-173 1033.82,-173 1027.82,-173 1021.82,-167 1021.82,-161 1021.82,-161 1021.82,-149 1021.82,-149 1021.82,-143 1027.82,-137 1033.82,-137 1033.82,-137 1117.82,-137 1117.82,-137 1123.82,-137 1129.82,-143 1129.82,-149 1129.82,-149 1129.82,-161 1129.82,-161 1129.82,-167 1123.82,-173 1117.82,-173"/>
<text text-anchor="middle" x="1075.82" y="-151.3" font-family="Arimo" font-size="14.00" fill="#ffffff">Option_Value</text>
</g>
<!-- intermediate_15 -->
<g id="node28" class="node">
<title>intermediate_15</title>
<polygon fill="none" stroke="#6f6f6f" stroke-width="0" points="1108.32,-98 1033.32,-98 1033.32,-75 1108.32,-75 1108.32,-98"/>
<text text-anchor="middle" x="1070.82" y="-82.8" font-family="Fira Code" font-size="14.00" fill="#6f6f6f">(⊤, 0, ⋆)</text>
</g>
<!-- Option_Value&#45;&gt;intermediate_15 -->
<g id="edge31" class="edge">
<title>Option_Value&#45;&gt;intermediate_15</title>
<path fill="none" stroke="#6f6f6f" stroke-width="2.5" d="M1074.53,-136.87C1073.62,-124.71 1072.42,-108.76 1071.63,-98.32"/>
</g>
<!-- Elapsed_Time_Opt -->
<g id="node11" class="node">
<title>Elapsed_Time_Opt</title>
<path fill="#009641" stroke="#6f6f6f" d="M1569.82,-173C1569.82,-173 1459.82,-173 1459.82,-173 1453.82,-173 1447.82,-167 1447.82,-161 1447.82,-161 1447.82,-149 1447.82,-149 1447.82,-143 1453.82,-137 1459.82,-137 1459.82,-137 1569.82,-137 1569.82,-137 1575.82,-137 1581.82,-143 1581.82,-149 1581.82,-149 1581.82,-161 1581.82,-161 1581.82,-167 1575.82,-173 1569.82,-173"/>
<text text-anchor="middle" x="1514.82" y="-151.3" font-family="Arimo" font-size="14.00" fill="#ffffff">Elapsed_Time_Opt</text>
</g>
<!-- intermediate_0 -->
<g id="node12" class="node">
<title>intermediate_0</title>
<polygon fill="none" stroke="#6f6f6f" stroke-width="0" points="1430.32,-98 1355.32,-98 1355.32,-75 1430.32,-75 1430.32,-98"/>
<text text-anchor="middle" x="1392.82" y="-82.8" font-family="Fira Code" font-size="14.00" fill="#6f6f6f">(⊤, 0, ⋆)</text>
</g>
<!-- Elapsed_Time_Opt&#45;&gt;intermediate_0 -->
<g id="edge1" class="edge">
<title>Elapsed_Time_Opt&#45;&gt;intermediate_0</title>
<path fill="none" stroke="#6f6f6f" stroke-width="2.5" d="M1483.4,-136.87C1460.95,-124.64 1431.44,-108.55 1412.31,-98.12"/>
</g>
<!-- Final -->
<g id="node13" class="node">
<title>Final</title>
<ellipse fill="#6f6f6f" stroke="#6f6f6f" cx="1006.82" cy="-18" rx="18" ry="18"/>
</g>
<!-- intermediate_0&#45;&gt;Final -->
<g id="edge2" class="edge">
<title>intermediate_0&#45;&gt;Final</title>
<path fill="none" stroke="#6f6f6f" stroke-width="2.5" d="M1355.1,-79C1277.67,-65.66 1102.35,-35.46 1034.43,-23.76"/>
<polygon fill="#6f6f6f" stroke="#6f6f6f" stroke-width="2.5" points="1034.93,-20.29 1024.48,-22.04 1033.74,-27.19 1034.93,-20.29"/>
</g>
<!-- intermediate_1&#45;&gt;Option_Type -->
<g id="edge4" class="edge">
<title>intermediate_1&#45;&gt;Option_Type</title>
<path fill="none" stroke="#6f6f6f" stroke-width="2.5" d="M626.82,-622.82C626.82,-615.08 626.82,-604.25 626.82,-594.19"/>
<polygon fill="#6f6f6f" stroke="#6f6f6f" stroke-width="2.5" points="630.32,-594.14 626.82,-584.14 623.32,-594.14 630.32,-594.14"/>
</g>
<!-- intermediate_2&#45;&gt;Final -->
<g id="edge6" class="edge">
<title>intermediate_2&#45;&gt;Final</title>
<path fill="none" stroke="#6f6f6f" stroke-width="2.5" d="M423.56,-143.45C480.49,-127.33 593.59,-96.21 690.82,-75 796.46,-51.95 923.52,-31.67 978.83,-23.2"/>
<polygon fill="#6f6f6f" stroke="#6f6f6f" stroke-width="2.5" points="979.54,-26.63 988.9,-21.67 978.49,-19.71 979.54,-26.63"/>
</g>
<!-- intermediate_3&#45;&gt;Final -->
<g id="edge8" class="edge">
<title>intermediate_3&#45;&gt;Final</title>
<path fill="none" stroke="#6f6f6f" stroke-width="2.5" d="M774.36,-76.25C829.57,-62.65 931.35,-37.59 979.81,-25.65"/>
<polygon fill="#6f6f6f" stroke="#6f6f6f" stroke-width="2.5" points="980.7,-29.04 989.58,-23.25 979.03,-22.24 980.7,-29.04"/>
</g>
<!-- intermediate_4&#45;&gt;Final -->
<g id="edge10" class="edge">
<title>intermediate_4&#45;&gt;Final</title>
<path fill="none" stroke="#6f6f6f" stroke-width="2.5" d="M864.05,-120.98C902.08,-93.81 954.37,-56.46 983.96,-35.32"/>
<polygon fill="#6f6f6f" stroke="#6f6f6f" stroke-width="2.5" points="986.28,-37.97 992.38,-29.31 982.21,-32.28 986.28,-37.97"/>
</g>
<!-- intermediate_5&#45;&gt;Option_Value -->
<g id="edge12" class="edge">
<title>intermediate_5&#45;&gt;Option_Value</title>
<path fill="none" stroke="#6f6f6f" stroke-width="2.5" d="M947.56,-211.89C967.29,-205.93 991.67,-197.9 1012.82,-189 1020.67,-185.69 1028.87,-181.77 1036.65,-177.81"/>
<polygon fill="#6f6f6f" stroke="#6f6f6f" stroke-width="2.5" points="1038.3,-180.89 1045.55,-173.17 1035.07,-174.69 1038.3,-180.89"/>
</g>
<!-- intermediate_6&#45;&gt;Elapsed_Time_Opt -->
<g id="edge14" class="edge">
<title>intermediate_6&#45;&gt;Elapsed_Time_Opt</title>
<path fill="none" stroke="#6f6f6f" stroke-width="2.5" d="M1750.29,-265.46C1737.54,-243.92 1716.45,-213.96 1689.82,-197 1660.84,-178.55 1624.43,-168.39 1592.33,-162.79"/>
<polygon fill="#6f6f6f" stroke="#6f6f6f" stroke-width="2.5" points="1592.5,-159.28 1582.07,-161.13 1591.38,-166.19 1592.5,-159.28"/>
</g>
<!-- intermediate_7&#45;&gt;Loss_Event_Rate -->
<g id="edge16" class="edge">
<title>intermediate_7&#45;&gt;Loss_Event_Rate</title>
<path fill="none" stroke="#6f6f6f" stroke-width="2.5" d="M237.55,-348.82C246.94,-340.26 260.47,-327.94 272.43,-317.04"/>
<polygon fill="#6f6f6f" stroke="#6f6f6f" stroke-width="2.5" points="274.96,-319.47 280,-310.14 270.25,-314.29 274.96,-319.47"/>
</g>
<!-- intermediate_8&#45;&gt;NDP_Count_Opt -->
<g id="edge18" class="edge">
<title>intermediate_8&#45;&gt;NDP_Count_Opt</title>
<path fill="none" stroke="#6f6f6f" stroke-width="2.5" d="M586.66,-333.98C587.32,-329.53 588.02,-324.88 588.7,-320.39"/>
<polygon fill="#6f6f6f" stroke="#6f6f6f" stroke-width="2.5" points="592.19,-320.73 590.21,-310.32 585.27,-319.69 592.19,-320.73"/>
</g>
<!-- intermediate_9&#45;&gt;Option_Feature -->
<g id="edge20" class="edge">
<title>intermediate_9&#45;&gt;Option_Feature</title>
<path fill="none" stroke="#6f6f6f" stroke-width="2.5" d="M902.82,-326.25C902.82,-324.24 902.82,-322.24 902.82,-320.26"/>
<polygon fill="#6f6f6f" stroke="#6f6f6f" stroke-width="2.5" points="906.32,-320.13 902.82,-310.13 899.32,-320.13 906.32,-320.13"/>
</g>
<!-- intermediate_10&#45;&gt;Receive_Rate -->
<g id="edge22" class="edge">
<title>intermediate_10&#45;&gt;Receive_Rate</title>
<path fill="none" stroke="#6f6f6f" stroke-width="2.5" d="M1244.84,-348.82C1241.12,-340.83 1235.86,-329.56 1231.05,-319.24"/>
<polygon fill="#6f6f6f" stroke="#6f6f6f" stroke-width="2.5" points="1234.21,-317.73 1226.81,-310.14 1227.86,-320.69 1234.21,-317.73"/>
</g>
<!-- intermediate_11&#45;&gt;Timestamp_Echo_Opt -->
<g id="edge24" class="edge">
<title>intermediate_11&#45;&gt;Timestamp_Echo_Opt</title>
<path fill="none" stroke="#6f6f6f" stroke-width="2.5" d="M1600.43,-348.82C1586.81,-339.94 1566.96,-326.99 1549.8,-315.8"/>
<polygon fill="#6f6f6f" stroke="#6f6f6f" stroke-width="2.5" points="1551.4,-312.67 1541.11,-310.14 1547.58,-318.54 1551.4,-312.67"/>
</g>
<!-- intermediate_12&#45;&gt;Timestamp_Option -->
<g id="edge26" class="edge">
<title>intermediate_12&#45;&gt;Timestamp_Option</title>
<path fill="none" stroke="#6f6f6f" stroke-width="2.5" d="M2002.82,-348.82C2002.82,-341.08 2002.82,-330.25 2002.82,-320.19"/>
<polygon fill="#6f6f6f" stroke="#6f6f6f" stroke-width="2.5" points="2006.32,-320.14 2002.82,-310.14 1999.32,-320.14 2006.32,-320.14"/>
</g>
<!-- intermediate_13&#45;&gt;Final -->
<g id="edge28" class="edge">
<title>intermediate_13&#45;&gt;Final</title>
<path fill="none" stroke="#6f6f6f" stroke-width="2.5" d="M329.62,-426.1C201.51,-423 45.83,-415 22.82,-394.5 -11.45,-363.98 3.82,-338.89 3.82,-293 3.82,-293 3.82,-293 3.82,-154 3.82,-52.88 814.91,-24.46 978.33,-19.76"/>
<polygon fill="#6f6f6f" stroke="#6f6f6f" stroke-width="2.5" points="978.65,-23.25 988.55,-19.47 978.46,-16.25 978.65,-23.25"/>
</g>
<!-- intermediate_14&#45;&gt;Option_Length -->
<g id="edge30" class="edge">
<title>intermediate_14&#45;&gt;Option_Length</title>
<path fill="none" stroke="#6f6f6f" stroke-width="2.5" d="M869.38,-470.98C918.03,-461.32 971.32,-450.74 1011.56,-442.75"/>
<polygon fill="#6f6f6f" stroke="#6f6f6f" stroke-width="2.5" points="1012.38,-446.16 1021.51,-440.78 1011.02,-439.3 1012.38,-446.16"/>
</g>
<!-- intermediate_15&#45;&gt;Final -->
<g id="edge32" class="edge">
<title>intermediate_15&#45;&gt;Final</title>
<path fill="none" stroke="#6f6f6f" stroke-width="2.5" d="M1060.54,-74.82C1051.26,-65.18 1037.38,-50.75 1026.05,-38.98"/>
<polygon fill="#6f6f6f" stroke="#6f6f6f" stroke-width="2.5" points="1028.5,-36.48 1019.04,-31.7 1023.46,-41.34 1028.5,-36.48"/>
</g>
<!-- intermediate_16&#45;&gt;Final -->
<g id="edge34" class="edge">
<title>intermediate_16&#45;&gt;Final</title>
<path fill="none" stroke="#6f6f6f" stroke-width="2.5" d="M1150.72,-74.96C1118.43,-62.41 1064.85,-41.57 1032.98,-29.17"/>
<polygon fill="#6f6f6f" stroke="#6f6f6f" stroke-width="2.5" points="1034.03,-25.83 1023.44,-25.47 1031.5,-32.35 1034.03,-25.83"/>
</g>
<!-- intermediate_17&#45;&gt;Elapsed_Time_Opt -->
<g id="edge36" class="edge">
<title>intermediate_17&#45;&gt;Elapsed_Time_Opt</title>
<path fill="none" stroke="#6f6f6f" stroke-width="2.5" d="M1514.82,-196.98C1514.82,-192.53 1514.82,-187.88 1514.82,-183.39"/>
<polygon fill="#6f6f6f" stroke="#6f6f6f" stroke-width="2.5" points="1518.32,-183.32 1514.82,-173.32 1511.32,-183.32 1518.32,-183.32"/>
</g>
<!-- intermediate_18&#45;&gt;Final -->
<g id="edge38" class="edge">
<title>intermediate_18&#45;&gt;Final</title>
<path fill="none" stroke="#6f6f6f" stroke-width="2.5" d="M1870.1,-211.92C1813.92,-193.23 1693.19,-153.29 1590.82,-121 1523.91,-99.89 1508.4,-89.77 1439.82,-75 1288.94,-42.5 1104.16,-26.27 1034.85,-20.99"/>
<polygon fill="#6f6f6f" stroke="#6f6f6f" stroke-width="2.5" points="1034.97,-17.49 1024.73,-20.24 1034.45,-24.47 1034.97,-17.49"/>
</g>
</g>
</svg>
