<?xml version="1.0" encoding="UTF-8" standalone="no"?>
<svg
   xmlns:dc="http://purl.org/dc/elements/1.1/"
   xmlns:cc="http://creativecommons.org/ns#"
   xmlns:rdf="http://www.w3.org/1999/02/22-rdf-syntax-ns#"
   xmlns:svg="http://www.w3.org/2000/svg"
   xmlns="http://www.w3.org/2000/svg"
   version="1.1"
   id="svg2"
   xml:space="preserve"
   width="360"
   height="59.955704"
   viewBox="0 0 360 59.955704"><metadata
     id="metadata8"><rdf:RDF><cc:Work
         rdf:about=""><dc:format>image/svg+xml</dc:format><dc:type
           rdf:resource="http://purl.org/dc/dcmitype/StillImage" /><dc:title></dc:title></cc:Work></rdf:RDF></metadata><defs
     id="defs6" /><g
     id="g10"
     transform="matrix(1.022091,0,0,-1.022091,1.1852201e-4,59.955705)"><g
       id="g12"
       transform="scale(0.1)"><path
         d="m 224.34,408.348 c 0,30.621 -7.828,53.062 -23.473,67.343 -15.66,14.27 -40.531,21.414 -74.625,21.414 H 83.5 c -4.6719,0 -7.0078,-2.863 -7.0078,-8.566 V 321.934 c 0,-5.719 2.5625,-8.567 7.7109,-8.567 h 42.7379 c 32.231,0 56.52,8.039 72.872,24.133 16.347,16.082 24.527,39.707 24.527,70.848 z M 337.852,26.8633 c 0,-6.2227 -3.977,-9.3399 -11.914,-9.3399 h -51.149 c -4.203,0 -7.598,0.7774 -10.16,2.336 -2.574,1.5547 -5.258,4.6719 -8.059,9.3437 L 108.723,254.977 c -2.336,4.148 -4.551,6.742 -6.653,7.785 -2.1012,1.035 -5.027,1.558 -8.7614,1.558 H 83.5 c -4.6719,0 -7.0078,-3.117 -7.0078,-9.343 V 31.5352 c 0,-9.3399 -3.9688,-14.0118 -11.9102,-14.0118 H 19.7383 c -7.4727,0 -11.21096,4.6719 -11.21096,14.0118 V 532.914 c 0,9.34 4.20706,14.016 12.61326,14.016 h 97.3904 c 20.555,0 39.703,-0.524 57.457,-1.559 17.75,-1.047 34.336,-4.414 49.75,-10.121 9.813,-3.641 18.918,-8.566 27.328,-14.793 8.407,-6.23 15.872,-14.281 22.422,-24.133 6.535,-9.863 11.668,-21.414 15.414,-34.644 3.735,-13.239 5.606,-28.688 5.606,-46.325 0,-42.039 -9.813,-73.96 -29.43,-95.761 -19.617,-21.797 -46.246,-36.332 -79.879,-43.598 -4.203,-1.047 -6.301,-2.855 -6.301,-5.449 0,-2.082 0.926,-4.938 2.801,-8.567 L 331.539,42.4375 c 4.207,-6.2266 6.313,-11.4219 6.313,-15.5742"
         style="fill:#656263;fill-opacity:1;fill-rule:nonzero;stroke:none"
         id="path14" /><path
         d="m 224.34,408.348 c 0,30.621 -7.828,53.062 -23.473,67.343 -15.66,14.27 -40.531,21.414 -74.625,21.414 H 83.5 c -4.6719,0 -7.0078,-2.863 -7.0078,-8.566 V 321.934 c 0,-5.719 2.5625,-8.567 7.7109,-8.567 h 42.7379 c 32.231,0 56.52,8.039 72.872,24.133 16.347,16.082 24.527,39.707 24.527,70.848 z M 337.852,26.8633 c 0,-6.2227 -3.977,-9.3399 -11.914,-9.3399 h -51.149 c -4.203,0 -7.598,0.7774 -10.16,2.336 -2.574,1.5547 -5.258,4.6719 -8.059,9.3437 L 108.723,254.977 c -2.336,4.148 -4.551,6.742 -6.653,7.785 -2.1012,1.035 -5.027,1.558 -8.7614,1.558 H 83.5 c -4.6719,0 -7.0078,-3.117 -7.0078,-9.343 V 31.5352 c 0,-9.3399 -3.9688,-14.0118 -11.9102,-14.0118 H 19.7383 c -7.4727,0 -11.21096,4.6719 -11.21096,14.0118 V 532.914 c 0,9.34 4.20706,14.016 12.61326,14.016 h 97.3904 c 20.555,0 39.703,-0.524 57.457,-1.559 17.75,-1.047 34.336,-4.414 49.75,-10.121 9.813,-3.641 18.918,-8.566 27.328,-14.793 8.407,-6.23 15.872,-14.281 22.422,-24.133 6.535,-9.863 11.668,-21.414 15.414,-34.644 3.735,-13.239 5.606,-28.688 5.606,-46.325 0,-42.039 -9.813,-73.96 -29.43,-95.761 -19.617,-21.797 -46.246,-36.332 -79.879,-43.598 -4.203,-1.047 -6.301,-2.855 -6.301,-5.449 0,-2.082 0.926,-4.938 2.801,-8.567 L 331.539,42.4375 c 4.207,-6.2266 6.313,-11.4219 6.313,-15.5742 z"
         style="fill:none;stroke:#656263;stroke-width:17.057;stroke-linecap:butt;stroke-linejoin:miter;stroke-miterlimit:10;stroke-dasharray:none;stroke-opacity:1"
         id="path16" /><path
         d="m 624.426,271.328 c 0,30.613 -7.981,54.36 -23.918,71.235 -15.945,16.859 -37.281,25.3 -64.004,25.3 -15.012,0 -28.258,-2.722 -39.742,-8.172 -11.5,-5.449 -21.11,-12.847 -28.848,-22.191 -7.746,-9.344 -13.598,-19.984 -17.586,-31.922 -3.98,-11.941 -5.98,-24.129 -5.98,-36.59 0,-2.601 0.465,-4.547 1.402,-5.836 0.941,-1.3 3.285,-1.949 7.039,-1.949 h 163.195 c 3.286,0 5.508,0.649 6.68,1.949 1.172,1.289 1.762,4.016 1.762,8.176 z m 69.367,-49.051 c 0,-9.343 -4.215,-14.011 -12.641,-14.011 H 454.895 c -7.032,0 -10.547,-3.637 -10.547,-10.899 0,-39.976 10.047,-71.762 30.132,-95.371 20.079,-23.6249 49.278,-35.4257 87.583,-35.4257 14.949,0 28.257,1.5586 39.941,4.6719 11.672,3.1133 21.719,6.3516 30.129,9.7344 8.406,3.3672 15.297,6.6172 20.672,9.7304 5.363,3.1133 9.461,4.668 12.261,4.668 6.536,0 9.809,-4.1602 9.809,-12.457 V 55.6719 c 0,-5.1953 -0.352,-9.2227 -1.051,-12.0703 -0.699,-2.8555 -2.922,-5.8321 -6.656,-8.9493 -4.207,-3.6367 -10.402,-6.8828 -18.566,-9.7304 -8.18,-2.8633 -17.407,-5.3281 -27.68,-7.3985 -10.277,-2.0703 -21.141,-3.6211 -32.578,-4.6718 -11.457,-1.0313 -22.543,-1.5586 -33.285,-1.5586 -60.731,0 -105.926,17.6406 -135.582,52.9453 -29.668,35.289 -44.493,84.5897 -44.493,147.9177 0,32.703 3.965,61.895 11.911,87.582 7.937,25.696 19.148,47.614 33.632,65.789 14.477,18.164 31.883,32.043 52.2,41.657 20.324,9.593 43.093,14.398 68.316,14.398 48.109,0 85.598,-15.703 112.461,-47.102 26.855,-31.406 40.289,-76.175 40.289,-134.296 v -17.907"
         style="fill:#656263;fill-opacity:1;fill-rule:nonzero;stroke:none"
         id="path18" /><path
         d="m 624.426,271.328 c 0,30.613 -7.981,54.36 -23.918,71.235 -15.945,16.859 -37.281,25.3 -64.004,25.3 -15.012,0 -28.258,-2.722 -39.742,-8.172 -11.5,-5.449 -21.11,-12.847 -28.848,-22.191 -7.746,-9.344 -13.598,-19.984 -17.586,-31.922 -3.98,-11.941 -5.98,-24.129 -5.98,-36.59 0,-2.601 0.465,-4.547 1.402,-5.836 0.941,-1.3 3.285,-1.949 7.039,-1.949 h 163.195 c 3.286,0 5.508,0.649 6.68,1.949 1.172,1.289 1.762,4.016 1.762,8.176 z m 69.367,-49.051 c 0,-9.343 -4.215,-14.011 -12.641,-14.011 H 454.895 c -7.032,0 -10.547,-3.637 -10.547,-10.899 0,-39.976 10.047,-71.762 30.132,-95.371 20.079,-23.6249 49.278,-35.4257 87.583,-35.4257 14.949,0 28.257,1.5586 39.941,4.6719 11.672,3.1133 21.719,6.3516 30.129,9.7344 8.406,3.3672 15.297,6.6172 20.672,9.7304 5.363,3.1133 9.461,4.668 12.261,4.668 6.536,0 9.809,-4.1602 9.809,-12.457 V 55.6719 c 0,-5.1953 -0.352,-9.2227 -1.051,-12.0703 -0.699,-2.8555 -2.922,-5.8321 -6.656,-8.9493 -4.207,-3.6367 -10.402,-6.8828 -18.566,-9.7304 -8.18,-2.8633 -17.407,-5.3281 -27.68,-7.3985 -10.277,-2.0703 -21.141,-3.6211 -32.578,-4.6718 -11.457,-1.0313 -22.543,-1.5586 -33.285,-1.5586 -60.731,0 -105.926,17.6406 -135.582,52.9453 -29.668,35.289 -44.493,84.5897 -44.493,147.9177 0,32.703 3.965,61.895 11.911,87.582 7.937,25.696 19.148,47.614 33.632,65.789 14.477,18.164 31.883,32.043 52.2,41.657 20.324,9.593 43.093,14.398 68.316,14.398 48.109,0 85.598,-15.703 112.461,-47.102 26.855,-31.406 40.289,-76.175 40.289,-134.296 z"
         style="fill:none;stroke:#656263;stroke-width:17.057;stroke-linecap:butt;stroke-linejoin:miter;stroke-miterlimit:10;stroke-dasharray:none;stroke-opacity:1"
         id="path20" /><path
         d="m 1047.63,53.1289 c 0,-5.7891 -0.94,-10.1328 -2.8,-13.0273 -1.87,-2.8946 -4.45,-5.3907 -7.71,-7.4961 -9.81,-6.3242 -23.82,-11.4571 -42.038,-15.3985 -18.219,-3.9257 -38.078,-5.914 -59.555,-5.914 -30.375,0 -56.757,4.8086 -79.156,14.4023 -22.414,9.6016 -40.902,23.2266 -55.465,40.875 -14.57,17.6367 -25.445,38.7927 -32.601,63.4527 -7.172,24.645 -10.754,52.028 -10.754,82.133 0,30.621 3.582,58.782 10.754,84.473 7.156,25.691 18.379,47.746 33.64,66.172 15.266,18.418 34.684,32.824 58.27,43.215 23.582,10.375 51.719,15.566 84.418,15.566 9.34,0 18.797,-0.656 28.379,-1.969 9.57,-1.312 18.566,-2.894 26.976,-4.746 8.412,-1.844 15.772,-4.086 22.072,-6.715 6.31,-2.625 11.32,-5 15.06,-7.089 4.67,-3.165 7.59,-6.18 8.76,-9.075 1.16,-2.898 1.75,-6.715 1.75,-11.449 v -32.137 c 0,-8.308 -3.27,-12.457 -9.8,-12.457 -4.21,0 -8.53,1.555 -12.97,4.668 -4.44,3.117 -10.16,6.356 -17.17,9.735 -7,3.367 -15.53,6.621 -25.569,9.73 -10.051,3.113 -22.312,4.672 -36.785,4.672 -21.02,0 -39.012,-4.004 -53.957,-12.008 -14.949,-8.004 -27.215,-18.719 -36.781,-32.137 -9.578,-13.429 -16.586,-29.308 -21.02,-47.636 -4.449,-18.332 -6.66,-37.817 -6.66,-58.461 0,-47.508 9.809,-83.781 29.43,-108.817 19.617,-25.0465 47.644,-37.5621 84.082,-37.5621 14.476,0 27.09,1.5586 37.836,4.6719 10.742,3.1094 19.968,6.3476 27.684,9.7305 7.7,3.371 14.12,6.6171 19.26,9.7343 5.13,3.1094 9.34,4.668 12.62,4.668 6.53,0 9.8,-4.1602 9.8,-12.457 V 53.1289"
         style="fill:#656263;fill-opacity:1;fill-rule:nonzero;stroke:none"
         id="path22" /><path
         d="m 1047.63,53.1289 c 0,-5.7891 -0.94,-10.1328 -2.8,-13.0273 -1.87,-2.8946 -4.45,-5.3907 -7.71,-7.4961 -9.81,-6.3242 -23.82,-11.4571 -42.038,-15.3985 -18.219,-3.9257 -38.078,-5.914 -59.555,-5.914 -30.375,0 -56.757,4.8086 -79.156,14.4023 -22.414,9.6016 -40.902,23.2266 -55.465,40.875 -14.57,17.6367 -25.445,38.7927 -32.601,63.4527 -7.172,24.645 -10.754,52.028 -10.754,82.133 0,30.621 3.582,58.782 10.754,84.473 7.156,25.691 18.379,47.746 33.64,66.172 15.266,18.418 34.684,32.824 58.27,43.215 23.582,10.375 51.719,15.566 84.418,15.566 9.34,0 18.797,-0.656 28.379,-1.969 9.57,-1.312 18.566,-2.894 26.976,-4.746 8.412,-1.844 15.772,-4.086 22.072,-6.715 6.31,-2.625 11.32,-5 15.06,-7.089 4.67,-3.165 7.59,-6.18 8.76,-9.075 1.16,-2.898 1.75,-6.715 1.75,-11.449 v -32.137 c 0,-8.308 -3.27,-12.457 -9.8,-12.457 -4.21,0 -8.53,1.555 -12.97,4.668 -4.44,3.117 -10.16,6.356 -17.17,9.735 -7,3.367 -15.53,6.621 -25.569,9.73 -10.051,3.113 -22.312,4.672 -36.785,4.672 -21.02,0 -39.012,-4.004 -53.957,-12.008 -14.949,-8.004 -27.215,-18.719 -36.781,-32.137 -9.578,-13.429 -16.586,-29.308 -21.02,-47.636 -4.449,-18.332 -6.66,-37.817 -6.66,-58.461 0,-47.508 9.809,-83.781 29.43,-108.817 19.617,-25.0465 47.644,-37.5621 84.082,-37.5621 14.476,0 27.09,1.5586 37.836,4.6719 10.742,3.1094 19.968,6.3476 27.684,9.7305 7.7,3.371 14.12,6.6171 19.26,9.7343 5.13,3.1094 9.34,4.668 12.62,4.668 6.53,0 9.8,-4.1602 9.8,-12.457 z"
         style="fill:none;stroke:#656263;stroke-width:17.057;stroke-linecap:butt;stroke-linejoin:miter;stroke-miterlimit:10;stroke-dasharray:none;stroke-opacity:1"
         id="path24" /><path
         d="m 1388.16,219.164 c 0,52.418 -8.71,90.176 -26.12,113.277 -17.4,23.09 -43.03,34.645 -76.89,34.645 -33.87,0 -59.38,-11.813 -76.54,-35.422 -17.17,-23.625 -25.76,-62.937 -25.76,-117.949 0,-52.434 8.7,-90.192 26.11,-113.277 17.41,-23.0982 43.04,-34.6411 76.9,-34.6411 33.39,0 58.78,11.7969 76.18,35.4181 17.41,23.613 26.12,62.93 26.12,117.949 z m 69.36,-1.559 c 0,-29.582 -3.5,-57.097 -10.51,-82.523 -7,-25.434 -17.63,-47.2343 -31.88,-65.3945 -14.25,-18.1758 -32.23,-32.4492 -53.95,-42.8242 -21.72,-10.375 -47.07,-15.5703 -76.03,-15.5703 -28.02,0 -52.78,4.8086 -74.27,14.4023 -21.49,9.6016 -39.35,23.3555 -53.6,41.2656 -14.25,17.9063 -25.11,39.4411 -32.58,64.6211 -7.48,25.164 -11.21,53.063 -11.21,83.691 0,29.586 3.5,57.09 10.51,82.524 7,25.426 17.62,47.223 31.88,65.394 14.25,18.164 32.11,32.434 53.6,42.825 21.49,10.375 46.95,15.566 76.38,15.566 28.02,0 52.78,-4.805 74.27,-14.398 21.48,-9.614 39.35,-23.364 53.6,-41.266 14.25,-17.906 25.11,-39.449 32.58,-64.621 7.47,-25.18 11.21,-53.07 11.21,-83.692"
         style="fill:#656263;fill-opacity:1;fill-rule:nonzero;stroke:none"
         id="path26" /><path
         d="m 1388.16,219.164 c 0,52.418 -8.71,90.176 -26.12,113.277 -17.4,23.09 -43.03,34.645 -76.89,34.645 -33.87,0 -59.38,-11.813 -76.54,-35.422 -17.17,-23.625 -25.76,-62.937 -25.76,-117.949 0,-52.434 8.7,-90.192 26.11,-113.277 17.41,-23.0982 43.04,-34.6411 76.9,-34.6411 33.39,0 58.78,11.7969 76.18,35.4181 17.41,23.613 26.12,62.93 26.12,117.949 z m 69.36,-1.559 c 0,-29.582 -3.5,-57.097 -10.51,-82.523 -7,-25.434 -17.63,-47.2343 -31.88,-65.3945 -14.25,-18.1758 -32.23,-32.4492 -53.95,-42.8242 -21.72,-10.375 -47.07,-15.5703 -76.03,-15.5703 -28.02,0 -52.78,4.8086 -74.27,14.4023 -21.49,9.6016 -39.35,23.3555 -53.6,41.2656 -14.25,17.9063 -25.11,39.4411 -32.58,64.6211 -7.48,25.164 -11.21,53.063 -11.21,83.691 0,29.586 3.5,57.09 10.51,82.524 7,25.426 17.62,47.223 31.88,65.394 14.25,18.164 32.11,32.434 53.6,42.825 21.49,10.375 46.95,15.566 76.38,15.566 28.02,0 52.78,-4.805 74.27,-14.398 21.48,-9.614 39.35,-23.364 53.6,-41.266 14.25,-17.906 25.11,-39.449 32.58,-64.621 7.47,-25.18 11.21,-53.07 11.21,-83.692 z"
         style="fill:none;stroke:#656263;stroke-width:17.057;stroke-linecap:butt;stroke-linejoin:miter;stroke-miterlimit:10;stroke-dasharray:none;stroke-opacity:1"
         id="path28" /><path
         d="m 1732.88,363.973 c 0,-8.309 -3.27,-12.461 -9.81,-12.461 -2.8,0 -5.37,0.39 -7.71,1.172 -2.33,0.777 -5.25,1.558 -8.75,2.336 -3.51,0.777 -8.06,1.554 -13.67,2.332 -5.6,0.781 -13.08,1.168 -22.42,1.168 -18.22,0 -33.17,-4.415 -44.84,-13.235 -11.68,-8.832 -17.52,-24.402 -17.52,-46.711 V 31.5352 c 0,-9.3399 -3.97,-14.0118 -11.91,-14.0118 h -42.04 c -7.95,0 -11.91,4.6719 -11.91,14.0118 V 401.344 c 0,9.34 3.96,14.011 11.91,14.011 h 39.94 c 6.06,0 9.11,-3.382 9.11,-10.121 v -6.226 c 0,-5.195 2.56,-7.789 7.7,-7.789 5.14,0 10.63,1.558 16.47,4.676 5.83,3.113 12.37,6.613 19.62,10.507 7.24,3.895 15.29,7.395 24.17,10.512 8.87,3.113 18.92,4.668 30.13,4.668 12.61,0 21.02,-1.691 25.23,-5.059 4.2,-3.382 6.3,-8.699 6.3,-15.96 v -36.59"
         style="fill:#656263;fill-opacity:1;fill-rule:nonzero;stroke:none"
         id="path30" /><path
         d="m 1732.88,363.973 c 0,-8.309 -3.27,-12.461 -9.81,-12.461 -2.8,0 -5.37,0.39 -7.71,1.172 -2.33,0.777 -5.25,1.558 -8.75,2.336 -3.51,0.777 -8.06,1.554 -13.67,2.332 -5.6,0.781 -13.08,1.168 -22.42,1.168 -18.22,0 -33.17,-4.415 -44.84,-13.235 -11.68,-8.832 -17.52,-24.402 -17.52,-46.711 V 31.5352 c 0,-9.3399 -3.97,-14.0118 -11.91,-14.0118 h -42.04 c -7.95,0 -11.91,4.6719 -11.91,14.0118 V 401.344 c 0,9.34 3.96,14.011 11.91,14.011 h 39.94 c 6.06,0 9.11,-3.382 9.11,-10.121 v -6.226 c 0,-5.195 2.56,-7.789 7.7,-7.789 5.14,0 10.63,1.558 16.47,4.676 5.83,3.113 12.37,6.613 19.62,10.507 7.24,3.895 15.29,7.395 24.17,10.512 8.87,3.113 18.92,4.668 30.13,4.668 12.61,0 21.02,-1.691 25.23,-5.059 4.2,-3.382 6.3,-8.699 6.3,-15.96 z"
         style="fill:none;stroke:#656263;stroke-width:17.057;stroke-linecap:butt;stroke-linejoin:miter;stroke-miterlimit:10;stroke-dasharray:none;stroke-opacity:1"
         id="path32" /><path
         d="m 2025.07,319.594 c 0,13.492 -6.57,24.648 -19.7,33.476 -13.12,8.825 -31.18,13.239 -54.15,13.239 -37.5,0 -66.22,-12.594 -86.14,-37.758 -19.93,-25.184 -29.9,-63.723 -29.9,-115.617 0,-44.645 8.91,-80.188 26.73,-106.657 17.81,-26.4684 47.58,-39.7067 89.31,-39.7067 21.1,0 38.69,4.0156 52.75,12.0664 14.06,8.043 21.1,20.1055 21.1,36.2073 z m 66.56,-288.0588 c 0,-9.3399 -3.74,-14.0118 -11.21,-14.0118 h -41.33 c -6.08,0 -9.12,3.3711 -9.12,10.1211 0,3.625 -2.34,5.4493 -7,5.4493 -3.74,0 -8.18,-1.1641 -13.31,-3.504 -5.15,-2.3359 -11.21,-4.8046 -18.22,-7.3945 -7.01,-2.6015 -15.42,-5.0625 -25.23,-7.3945 -9.81,-2.336 -21.49,-3.5078 -35.03,-3.5078 -52.79,0 -93.54,17.7734 -122.27,53.3281 -28.73,35.5509 -43.09,84.4769 -43.09,146.7619 0,34.25 4.08,64.347 12.26,90.305 8.17,25.949 19.85,47.882 35.03,65.789 15.18,17.902 33.28,31.394 54.31,40.48 21.02,9.078 44.37,13.625 70.06,13.625 12.62,0 23.59,-1.168 32.94,-3.504 9.33,-2.332 17.4,-4.801 24.17,-7.394 6.77,-2.606 12.14,-5.059 16.12,-7.395 3.96,-2.34 6.65,-3.504 8.05,-3.504 4.21,0 6.31,3.367 6.31,10.121 v 154.153 c 0,9.339 3.97,14.011 11.91,14.011 h 43.44 c 7.47,0 11.21,-4.672 11.21,-14.011 V 31.5352"
         style="fill:#656263;fill-opacity:1;fill-rule:nonzero;stroke:none"
         id="path34" /><path
         d="m 2025.07,319.594 c 0,13.492 -6.57,24.648 -19.7,33.476 -13.12,8.825 -31.18,13.239 -54.15,13.239 -37.5,0 -66.22,-12.594 -86.14,-37.758 -19.93,-25.184 -29.9,-63.723 -29.9,-115.617 0,-44.645 8.91,-80.188 26.73,-106.657 17.81,-26.4684 47.58,-39.7067 89.31,-39.7067 21.1,0 38.69,4.0156 52.75,12.0664 14.06,8.043 21.1,20.1055 21.1,36.2073 z m 66.56,-288.0588 c 0,-9.3399 -3.74,-14.0118 -11.21,-14.0118 h -41.33 c -6.08,0 -9.12,3.3711 -9.12,10.1211 0,3.625 -2.34,5.4493 -7,5.4493 -3.74,0 -8.18,-1.1641 -13.31,-3.504 -5.15,-2.3359 -11.21,-4.8046 -18.22,-7.3945 -7.01,-2.6015 -15.42,-5.0625 -25.23,-7.3945 -9.81,-2.336 -21.49,-3.5078 -35.03,-3.5078 -52.79,0 -93.54,17.7734 -122.27,53.3281 -28.73,35.5509 -43.09,84.4769 -43.09,146.7619 0,34.25 4.08,64.347 12.26,90.305 8.17,25.949 19.85,47.882 35.03,65.789 15.18,17.902 33.28,31.394 54.31,40.48 21.02,9.078 44.37,13.625 70.06,13.625 12.62,0 23.59,-1.168 32.94,-3.504 9.33,-2.332 17.4,-4.801 24.17,-7.394 6.77,-2.606 12.14,-5.059 16.12,-7.395 3.96,-2.34 6.65,-3.504 8.05,-3.504 4.21,0 6.31,3.367 6.31,10.121 v 154.153 c 0,9.339 3.97,14.011 11.91,14.011 h 43.44 c 7.47,0 11.21,-4.672 11.21,-14.011 z"
         style="fill:none;stroke:#656263;stroke-width:17.057;stroke-linecap:butt;stroke-linejoin:miter;stroke-miterlimit:10;stroke-dasharray:none;stroke-opacity:1"
         id="path36" /><path
         d="m 2465.1,504.109 c 0,-9.343 -4.21,-14.011 -12.62,-14.011 h -174.47 c -4.67,0 -7.01,-3.141 -7.01,-9.395 V 335.996 c 0,-6.266 2.81,-9.394 8.41,-9.394 h 136.64 c 8.41,0 12.61,-4.864 12.61,-14.594 v -27.645 c 0,-9.73 -4.2,-14.593 -12.61,-14.593 h -136.64 c -5.6,0 -8.41,-3.118 -8.41,-9.34 V 31.5352 c 0,-9.3399 -4.44,-14.0118 -13.31,-14.0118 h -43.44 c -8.41,0 -12.61,4.6719 -12.61,14.0118 V 532.914 c 0,9.34 4.2,14.016 12.61,14.016 h 238.23 c 8.41,0 12.62,-4.676 12.62,-14.016 v -28.805"
         style="fill:#bdbcbc;fill-opacity:1;fill-rule:nonzero;stroke:none"
         id="path38" /><path
         d="m 2465.1,504.109 c 0,-9.343 -4.21,-14.011 -12.62,-14.011 h -174.47 c -4.67,0 -7.01,-3.141 -7.01,-9.395 V 335.996 c 0,-6.266 2.81,-9.394 8.41,-9.394 h 136.64 c 8.41,0 12.61,-4.864 12.61,-14.594 v -27.645 c 0,-9.73 -4.2,-14.593 -12.61,-14.593 h -136.64 c -5.6,0 -8.41,-3.118 -8.41,-9.34 V 31.5352 c 0,-9.3399 -4.44,-14.0118 -13.31,-14.0118 h -43.44 c -8.41,0 -12.61,4.6719 -12.61,14.0118 V 532.914 c 0,9.34 4.2,14.016 12.61,14.016 h 238.23 c 8.41,0 12.62,-4.676 12.62,-14.016 z"
         style="fill:none;stroke:#bdbcbc;stroke-width:17.057;stroke-linecap:butt;stroke-linejoin:miter;stroke-miterlimit:10;stroke-dasharray:none;stroke-opacity:1"
         id="path40" /><path
         d="m 2591.91,31.5352 c 0,-9.3399 -3.98,-14.0118 -11.92,-14.0118 h -42.04 c -7.94,0 -11.91,4.6719 -11.91,14.0118 V 564.059 c 0,9.339 3.97,14.011 11.91,14.011 h 42.04 c 7.94,0 11.92,-4.672 11.92,-14.011 V 31.5352"
         style="fill:#bdbcbc;fill-opacity:1;fill-rule:nonzero;stroke:none"
         id="path42" /><path
         d="m 2591.91,31.5352 c 0,-9.3399 -3.98,-14.0118 -11.92,-14.0118 h -42.04 c -7.94,0 -11.91,4.6719 -11.91,14.0118 V 564.059 c 0,9.339 3.97,14.011 11.91,14.011 h 42.04 c 7.94,0 11.92,-4.672 11.92,-14.011 z"
         style="fill:none;stroke:#bdbcbc;stroke-width:17.057;stroke-linecap:butt;stroke-linejoin:miter;stroke-miterlimit:10;stroke-dasharray:none;stroke-opacity:1"
         id="path44" /><path
         d="m 2990.6,31.5352 c 0,-9.3399 -4.45,-14.0118 -13.32,-14.0118 h -38.53 c -6.55,0 -9.81,3.3711 -9.81,10.1211 0,3.625 -2.35,5.4493 -7.01,5.4493 -5.6,0 -11.33,-1.1641 -17.17,-3.504 -5.84,-2.3359 -12.38,-4.8046 -19.62,-7.3945 -7.24,-2.6015 -15.88,-5.0625 -25.92,-7.3945 -10.05,-2.336 -22.07,-3.5078 -36.09,-3.5078 -20.55,0 -39.58,2.9922 -57.1,8.9531 -17.52,5.9648 -31.88,15.9648 -43.09,29.9766 -5.61,7.2617 -10.16,14.914 -13.66,22.9648 -3.51,8.043 -6.2,17.1289 -8.07,27.2505 -1.87,10.125 -3.15,21.531 -3.85,34.253 -0.7,12.715 -1.05,27.375 -1.05,43.989 v 222.664 c 0,9.34 3.97,14.011 11.91,14.011 h 43.44 c 7.47,0 11.21,-4.671 11.21,-14.011 V 157.66 c 0,-31.664 6.07,-54.887 18.22,-69.6756 12.15,-14.7969 34.1,-22.1875 65.87,-22.1875 7.47,0 15.76,0.8984 24.87,2.7226 9.11,1.8125 17.17,4.2813 24.17,7.3907 9.34,4.1523 16.35,9.0781 21.02,14.7968 4.67,5.7032 7.01,14.523 7.01,26.469 v 284.168 c 0,9.34 3.74,14.011 11.21,14.011 h 43.44 c 7.94,0 11.92,-4.671 11.92,-14.011 V 31.5352"
         style="fill:#bdbcbc;fill-opacity:1;fill-rule:nonzero;stroke:none"
         id="path46" /><path
         d="m 2990.6,31.5352 c 0,-9.3399 -4.45,-14.0118 -13.32,-14.0118 h -38.53 c -6.55,0 -9.81,3.3711 -9.81,10.1211 0,3.625 -2.35,5.4493 -7.01,5.4493 -5.6,0 -11.33,-1.1641 -17.17,-3.504 -5.84,-2.3359 -12.38,-4.8046 -19.62,-7.3945 -7.24,-2.6015 -15.88,-5.0625 -25.92,-7.3945 -10.05,-2.336 -22.07,-3.5078 -36.09,-3.5078 -20.55,0 -39.58,2.9922 -57.1,8.9531 -17.52,5.9648 -31.88,15.9648 -43.09,29.9766 -5.61,7.2617 -10.16,14.914 -13.66,22.9648 -3.51,8.043 -6.2,17.1289 -8.07,27.2505 -1.87,10.125 -3.15,21.531 -3.85,34.253 -0.7,12.715 -1.05,27.375 -1.05,43.989 v 222.664 c 0,9.34 3.97,14.011 11.91,14.011 h 43.44 c 7.47,0 11.21,-4.671 11.21,-14.011 V 157.66 c 0,-31.664 6.07,-54.887 18.22,-69.6756 12.15,-14.7969 34.1,-22.1875 65.87,-22.1875 7.47,0 15.76,0.8984 24.87,2.7226 9.11,1.8125 17.17,4.2813 24.17,7.3907 9.34,4.1523 16.35,9.0781 21.02,14.7968 4.67,5.7032 7.01,14.523 7.01,26.469 v 284.168 c 0,9.34 3.74,14.011 11.21,14.011 h 43.44 c 7.94,0 11.92,-4.671 11.92,-14.011 z"
         style="fill:none;stroke:#bdbcbc;stroke-width:17.057;stroke-linecap:butt;stroke-linejoin:miter;stroke-miterlimit:10;stroke-dasharray:none;stroke-opacity:1"
         id="path48" /><path
         d="m 3360.55,28.4219 c 0,-7.2735 -3.97,-10.8985 -11.91,-10.8985 h -46.95 c -3.27,0 -5.95,0.5118 -8.05,1.5586 -2.1,1.0352 -4.33,3.6211 -6.66,7.7813 L 3205,160.777 c -3.27,5.18 -6.08,7.782 -8.41,7.782 -2.34,0 -4.67,-2.332 -7.01,-7.008 L 3113.91,23.7539 c -0.94,-2.0781 -2.34,-3.6367 -4.2,-4.6719 -1.87,-1.0468 -4.68,-1.5586 -8.41,-1.5586 h -35.74 c -8.4,0 -12.61,3.3711 -12.61,10.1211 0,4.1485 1.63,8.8203 4.9,14.0157 l 101.61,166.6058 c 3.26,5.179 4.9,9.339 4.9,12.457 0,3.113 -1.64,7.007 -4.9,11.679 l -97.4,158.817 c -3.74,5.711 -5.61,10.379 -5.61,14.015 0,6.739 4.21,10.121 12.62,10.121 h 46.24 c 3.74,0 6.66,-0.781 8.76,-2.332 2.1,-1.558 4.09,-3.898 5.96,-7.007 l 70.76,-115.227 c 3.27,-5.195 6.07,-7.785 8.41,-7.785 2.34,0 4.67,2.336 7.01,7.004 l 64.46,116.008 c 3.27,6.222 7.94,9.339 14.02,9.339 h 34.33 c 7.94,0 11.91,-3.117 11.91,-9.339 0,-4.672 -1.64,-9.614 -4.9,-14.797 l -91.79,-151.035 c -1.87,-2.602 -2.81,-5.715 -2.81,-9.34 0,-3.114 1.17,-6.5 3.51,-10.121 L 3355.65,41.6602 c 3.26,-5.1954 4.9,-9.6094 4.9,-13.2383"
         style="fill:#bdbcbc;fill-opacity:1;fill-rule:nonzero;stroke:none"
         id="path50" /><path
         d="m 3360.55,28.4219 c 0,-7.2735 -3.97,-10.8985 -11.91,-10.8985 h -46.95 c -3.27,0 -5.95,0.5118 -8.05,1.5586 -2.1,1.0352 -4.33,3.6211 -6.66,7.7813 L 3205,160.777 c -3.27,5.18 -6.08,7.782 -8.41,7.782 -2.34,0 -4.67,-2.332 -7.01,-7.008 L 3113.91,23.7539 c -0.94,-2.0781 -2.34,-3.6367 -4.2,-4.6719 -1.87,-1.0468 -4.68,-1.5586 -8.41,-1.5586 h -35.74 c -8.4,0 -12.61,3.3711 -12.61,10.1211 0,4.1485 1.63,8.8203 4.9,14.0157 l 101.61,166.6058 c 3.26,5.179 4.9,9.339 4.9,12.457 0,3.113 -1.64,7.007 -4.9,11.679 l -97.4,158.817 c -3.74,5.711 -5.61,10.379 -5.61,14.015 0,6.739 4.21,10.121 12.62,10.121 h 46.24 c 3.74,0 6.66,-0.781 8.76,-2.332 2.1,-1.558 4.09,-3.898 5.96,-7.007 l 70.76,-115.227 c 3.27,-5.195 6.07,-7.785 8.41,-7.785 2.34,0 4.67,2.336 7.01,7.004 l 64.46,116.008 c 3.27,6.222 7.94,9.339 14.02,9.339 h 34.33 c 7.94,0 11.91,-3.117 11.91,-9.339 0,-4.672 -1.64,-9.614 -4.9,-14.797 l -91.79,-151.035 c -1.87,-2.602 -2.81,-5.715 -2.81,-9.34 0,-3.114 1.17,-6.5 3.51,-10.121 L 3355.65,41.6602 c 3.26,-5.1954 4.9,-9.6094 4.9,-13.2383 z"
         style="fill:none;stroke:#bdbcbc;stroke-width:17.057;stroke-linecap:butt;stroke-linejoin:miter;stroke-miterlimit:10;stroke-dasharray:none;stroke-opacity:1"
         id="path52" /><path
         d="m 3508.74,0 h -84.98 c -7.42,0 -13.44,6.01953 -13.44,13.4414 v 93.4926 c 0,7.421 6.02,13.441 13.44,13.441 h 84.98 c 7.43,0 13.45,-6.02 13.45,-13.441 V 13.4414 C 3522.19,6.01953 3516.17,0 3508.74,0"
         style="fill:#00a650;fill-opacity:1;fill-rule:nonzero;stroke:none"
         id="path54" /></g></g></svg>
